<svg xmlns="http://www.w3.org/2000/svg" width="980" height="574" viewBox="0 0 980 574">
<style>text{font-family:Segoe UI,Arial,sans-serif;font-size:13px;fill:#1f2937}.title{font-size:22px;font-weight:700}.axis{fill:#6b7280}.barlabel{font-size:12px;fill:#111827}</style>
<rect width="100%" height="100%" fill="#ffffff"/>
<text x="24" y="34" class="title">SummerTestModel Benchmark Scores</text>
<text x="24" y="56" class="axis">Total score out of 70. Green = local, blue = cloud.</text>
<text x="24" y="93">gpt-oss:120b-cloud</text>
<rect x="260" y="78" width="539" height="16" rx="3" fill="#3a7bd5"/>
<text x="807" y="91" class="barlabel">59/70</text>
<text x="24" y="117">devstral-2:123b-cloud</text>
<rect x="260" y="102" width="475" height="16" rx="3" fill="#3a7bd5"/>
<text x="743" y="115" class="barlabel">52/70</text>
<text x="24" y="141">ornith:9b</text>
<rect x="260" y="126" width="475" height="16" rx="3" fill="#2f9e44"/>
<text x="743" y="139" class="barlabel">52/70</text>
<text x="24" y="165">qwen3-coder:480b-cloud</text>
<rect x="260" y="150" width="438" height="16" rx="3" fill="#3a7bd5"/>
<text x="706" y="163" class="barlabel">48/70</text>
<text x="24" y="189">qwen3-coder-next:cloud</text>
<rect x="260" y="174" width="429" height="16" rx="3" fill="#3a7bd5"/>
<text x="697" y="187" class="barlabel">47/70</text>
<text x="24" y="213">minimax-m3:cloud</text>
<rect x="260" y="198" width="429" height="16" rx="3" fill="#3a7bd5"/>
<text x="697" y="211" class="barlabel">47/70</text>
<text x="24" y="237">granite4.1:8b</text>
<rect x="260" y="222" width="411" height="16" rx="3" fill="#2f9e44"/>
<text x="679" y="235" class="barlabel">45/70</text>
<text x="24" y="261">deepscaler:1.5b</text>
<rect x="260" y="246" width="402" height="16" rx="3" fill="#2f9e44"/>
<text x="670" y="259" class="barlabel">44/70</text>
<text x="24" y="285">lfm2.5:8b</text>
<rect x="260" y="270" width="374" height="16" rx="3" fill="#2f9e44"/>
<text x="642" y="283" class="barlabel">41/70</text>
<text x="24" y="309">gemma4:e4b</text>
<rect x="260" y="294" width="365" height="16" rx="3" fill="#2f9e44"/>
<text x="633" y="307" class="barlabel">40/70</text>
<text x="24" y="333">smollm2:1.7b</text>
<rect x="260" y="318" width="356" height="16" rx="3" fill="#2f9e44"/>
<text x="624" y="331" class="barlabel">39/70</text>
<text x="24" y="357">mistral:7b</text>
<rect x="260" y="342" width="356" height="16" rx="3" fill="#2f9e44"/>
<text x="624" y="355" class="barlabel">39/70</text>
<text x="24" y="381">phi4-mini-reasoning:latest</text>
<rect x="260" y="366" width="292" height="16" rx="3" fill="#2f9e44"/>
<text x="560" y="379" class="barlabel">32/70</text>
<text x="24" y="405">phi4-mini:latest</text>
<rect x="260" y="390" width="274" height="16" rx="3" fill="#2f9e44"/>
<text x="542" y="403" class="barlabel">30/70</text>
<text x="24" y="429">kaelri/hy-mt2:7b-q4_K_M</text>
<rect x="260" y="414" width="256" height="16" rx="3" fill="#2f9e44"/>
<text x="524" y="427" class="barlabel">28/70</text>
<text x="24" y="453">llama3.2:3b</text>
<rect x="260" y="438" width="256" height="16" rx="3" fill="#2f9e44"/>
<text x="524" y="451" class="barlabel">28/70</text>
<text x="24" y="477">translategemma:latest</text>
<rect x="260" y="462" width="192" height="16" rx="3" fill="#2f9e44"/>
<text x="460" y="475" class="barlabel">21/70</text>
<text x="24" y="501">deepseek-r1:8b</text>
<rect x="260" y="486" width="192" height="16" rx="3" fill="#2f9e44"/>
<text x="460" y="499" class="barlabel">21/70</text>
<text x="24" y="525">qwen3.5:9b</text>
<rect x="260" y="510" width="155" height="16" rx="3" fill="#2f9e44"/>
<text x="423" y="523" class="barlabel">17/70</text>
<text x="24" y="549">qwen3-vl:8b</text>
<rect x="260" y="534" width="128" height="16" rx="3" fill="#2f9e44"/>
<text x="396" y="547" class="barlabel">14/70</text>
<text x="24" y="573">starcoder2:7b</text>
<rect x="260" y="558" width="91" height="16" rx="3" fill="#2f9e44"/>
<text x="359" y="571" class="barlabel">10/70</text>
</svg>