<svg xmlns="http://www.w3.org/2000/svg" width="1180" height="694" viewBox="0 0 1180 694">
<style>text{font-family:Segoe UI,Arial,sans-serif;font-size:13px;fill:#1f2937}.title{font-size:22px;font-weight:700}.axis{fill:#6b7280}.barlabel{font-size:12px;fill:#111827}</style>
<rect width="100%" height="100%" fill="#ffffff"/>
<text x="24" y="34" class="title">SummerTestModel Benchmark Scores</text>
<text x="24" y="56" class="axis">Total score out of 70. Green = local, blue = cloud.</text>
<text x="24" y="93">gpt-oss:120b-cloud</text>
<rect x="360" y="78" width="623" height="16" rx="3" fill="#3a7bd5"/>
<text x="991" y="91" class="barlabel">59/70</text>
<text x="24" y="117">devstral-2:123b-cloud</text>
<rect x="360" y="102" width="549" height="16" rx="3" fill="#3a7bd5"/>
<text x="917" y="115" class="barlabel">52/70</text>
<text x="24" y="141">ornith:9b</text>
<rect x="360" y="126" width="549" height="16" rx="3" fill="#2f9e44"/>
<text x="917" y="139" class="barlabel">52/70</text>
<text x="24" y="165">qwen3-coder:480b-cloud</text>
<rect x="360" y="150" width="507" height="16" rx="3" fill="#3a7bd5"/>
<text x="875" y="163" class="barlabel">48/70</text>
<text x="24" y="189">qwen3-coder-next:cloud</text>
<rect x="360" y="174" width="496" height="16" rx="3" fill="#3a7bd5"/>
<text x="864" y="187" class="barlabel">47/70</text>
<text x="24" y="213">minimax-m3:cloud</text>
<rect x="360" y="198" width="496" height="16" rx="3" fill="#3a7bd5"/>
<text x="864" y="211" class="barlabel">47/70</text>
<text x="24" y="237">granite4.1:8b</text>
<rect x="360" y="222" width="475" height="16" rx="3" fill="#2f9e44"/>
<text x="843" y="235" class="barlabel">45/70</text>
<text x="24" y="261">deepscaler:1.5b</text>
<rect x="360" y="246" width="465" height="16" rx="3" fill="#2f9e44"/>
<text x="833" y="259" class="barlabel">44/70</text>
<text x="24" y="285">lfm2.5:8b</text>
<rect x="360" y="270" width="433" height="16" rx="3" fill="#2f9e44"/>
<text x="801" y="283" class="barlabel">41/70</text>
<text x="24" y="309">gemma4:e4b</text>
<rect x="360" y="294" width="422" height="16" rx="3" fill="#2f9e44"/>
<text x="790" y="307" class="barlabel">40/70</text>
<text x="24" y="333">smollm2:1.7b</text>
<rect x="360" y="318" width="412" height="16" rx="3" fill="#2f9e44"/>
<text x="780" y="331" class="barlabel">39/70</text>
<text x="24" y="357">mistral:7b</text>
<rect x="360" y="342" width="412" height="16" rx="3" fill="#2f9e44"/>
<text x="780" y="355" class="barlabel">39/70</text>
<text x="24" y="381">hf.co/lmstudio-community/Qwen3-8B-GGUF:Q4_K_M</text>
<rect x="360" y="366" width="412" height="16" rx="3" fill="#2f9e44"/>
<text x="780" y="379" class="barlabel">39/70</text>
<text x="24" y="405">hf.co/unsloth/SmolLM3-3B-GGUF:UD-Q4_K_XL</text>
<rect x="360" y="390" width="380" height="16" rx="3" fill="#2f9e44"/>
<text x="748" y="403" class="barlabel">36/70</text>
<text x="24" y="429">phi4-mini-reasoning:latest</text>
<rect x="360" y="414" width="338" height="16" rx="3" fill="#2f9e44"/>
<text x="706" y="427" class="barlabel">32/70</text>
<text x="24" y="453">huggingface.co/llmware/phi-4-mini-gguf:latest</text>
<rect x="360" y="438" width="327" height="16" rx="3" fill="#2f9e44"/>
<text x="695" y="451" class="barlabel">31/70</text>
<text x="24" y="477">phi4-mini:latest</text>
<rect x="360" y="462" width="317" height="16" rx="3" fill="#2f9e44"/>
<text x="685" y="475" class="barlabel">30/70</text>
<text x="24" y="501">kaelri/hy-mt2:7b-q4_K_M</text>
<rect x="360" y="486" width="296" height="16" rx="3" fill="#2f9e44"/>
<text x="664" y="499" class="barlabel">28/70</text>
<text x="24" y="525">llama3.2:3b</text>
<rect x="360" y="510" width="296" height="16" rx="3" fill="#2f9e44"/>
<text x="664" y="523" class="barlabel">28/70</text>
<text x="24" y="549">huggingface.co/lmstudio-community/DeepSeek...</text>
<rect x="360" y="534" width="296" height="16" rx="3" fill="#2f9e44"/>
<text x="664" y="547" class="barlabel">28/70</text>
<text x="24" y="573">translategemma:latest</text>
<rect x="360" y="558" width="222" height="16" rx="3" fill="#2f9e44"/>
<text x="590" y="571" class="barlabel">21/70</text>
<text x="24" y="597">deepseek-r1:8b</text>
<rect x="360" y="582" width="222" height="16" rx="3" fill="#2f9e44"/>
<text x="590" y="595" class="barlabel">21/70</text>
<text x="24" y="621">qwen3.5:9b</text>
<rect x="360" y="606" width="179" height="16" rx="3" fill="#2f9e44"/>
<text x="547" y="619" class="barlabel">17/70</text>
<text x="24" y="645">qwen3-vl:8b</text>
<rect x="360" y="630" width="148" height="16" rx="3" fill="#2f9e44"/>
<text x="516" y="643" class="barlabel">14/70</text>
<text x="24" y="669">starcoder2:7b</text>
<rect x="360" y="654" width="105" height="16" rx="3" fill="#2f9e44"/>
<text x="473" y="667" class="barlabel">10/70</text>
<text x="24" y="693">qwen3.5:4b</text>
<rect x="360" y="678" width="74" height="16" rx="3" fill="#2f9e44"/>
<text x="442" y="691" class="barlabel">7/70</text>
</svg>